<?xml version="1.0" standalone="no"?>
<!DOCTYPE svg PUBLIC "-//W3C//DTD SVG 20010904//EN"
 "http://www.w3.org/TR/2001/REC-SVG-20010904/DTD/svg10.dtd">
<svg version="1.0" xmlns="http://www.w3.org/2000/svg"
 width="1200.000000pt" height="1200.000000pt" viewBox="0 0 1200.000000 1200.000000"
 preserveAspectRatio="xMidYMid meet">
<metadata>
Created by potrace 1.14, written by Peter Selinger 2001-2017
</metadata>
<g transform="translate(0.000000,1200.000000) scale(0.100000,-0.100000)"
fill="#000000" stroke="none">
<path d="M1978 9834 c-2 -2 -28 -6 -57 -9 -29 -3 -74 -10 -99 -16 -26 -6 -54
-12 -62 -14 -38 -8 -189 -59 -230 -77 -124 -55 -268 -132 -282 -152 -5 -7 -8
-7 -8 -1 0 6 -3 6 -8 -1 -4 -6 -32 -28 -62 -49 -30 -21 -60 -43 -66 -49 -7 -6
-31 -27 -55 -46 -107 -86 -283 -274 -380 -405 -24 -33 -47 -64 -52 -70 -15
-20 -94 -142 -100 -156 -4 -8 -23 -41 -43 -74 -55 -93 -167 -330 -209 -440
-20 -55 -41 -109 -46 -120 -11 -29 -50 -153 -54 -173 -2 -9 -4 -18 -5 -19 -2
-2 -3 -6 -5 -10 -1 -5 -5 -20 -9 -34 -4 -14 -9 -34 -11 -45 -2 -10 -4 -20 -5
-21 -2 -2 -3 -6 -4 -10 -7 -29 -38 -163 -41 -179 -2 -10 -4 -19 -5 -19 -1 0
-3 -9 -4 -20 -2 -11 -7 -40 -11 -65 -9 -48 -9 -50 -19 -120 -20 -141 -23 -168
-33 -275 -10 -115 -10 -589 1 -720 14 -182 24 -269 31 -295 2 -8 7 -37 10 -65
3 -27 7 -57 10 -65 2 -8 6 -33 9 -55 3 -22 8 -51 11 -65 5 -22 26 -121 41
-190 2 -14 8 -34 11 -45 4 -11 8 -24 9 -30 1 -5 16 -57 34 -115 17 -58 33
-112 35 -120 10 -41 92 -251 133 -340 11 -25 20 -48 19 -51 -1 -3 3 -12 9 -20
7 -8 33 -54 59 -103 71 -134 165 -282 232 -366 7 -8 34 -42 60 -75 110 -138
306 -314 454 -408 88 -56 264 -142 282 -139 4 1 7 -2 7 -6 0 -5 6 -9 13 -9 6
0 52 -13 101 -28 49 -15 98 -28 110 -30 12 -2 56 -8 100 -15 43 -6 84 -9 92
-6 8 3 14 2 14 -2 0 -17 262 -4 365 18 28 6 57 12 65 13 21 4 102 27 120 34 8
3 20 7 25 8 6 2 32 12 57 24 26 11 52 21 57 21 6 0 11 5 11 10 0 6 9 10 20 10
11 0 20 4 20 8 0 4 12 13 28 19 36 15 86 46 90 56 2 4 9 7 16 7 7 0 21 8 32
18 10 9 44 36 74 59 30 23 87 72 125 108 70 67 103 81 128 56 9 -9 12 -100 13
-327 0 -308 0 -316 -20 -326 -14 -8 -129 -11 -347 -11 l-327 0 0 -679 0 -678
481 4 c265 2 498 7 517 10 19 3 70 7 112 8 43 2 78 5 78 9 0 3 10 5 23 6 20 1
83 8 147 18 36 5 74 13 175 35 50 11 101 23 115 25 14 3 32 8 40 12 8 3 20 7
27 9 21 4 116 35 156 50 102 39 129 51 222 96 112 55 178 90 185 99 3 3 16 12
29 19 14 7 30 17 35 22 6 5 35 26 65 48 116 85 252 217 331 320 14 18 31 39
38 46 6 7 12 17 12 22 0 6 3 12 8 14 29 12 232 382 232 422 0 9 5 16 10 16 6
0 9 3 8 7 -1 5 3 23 9 41 7 18 12 33 11 35 -1 1 5 13 12 27 8 14 15 32 16 40
1 8 7 31 14 50 17 52 52 182 56 205 1 11 3 21 4 23 3 2 4 5 13 52 4 19 9 46
12 60 3 14 8 40 10 57 3 18 7 48 10 65 2 18 7 44 10 58 3 14 7 48 9 75 3 28 7
70 10 95 11 83 17 184 21 347 3 89 5 165 6 170 1 4 0 10 -1 13 -6 16 -5 62 2
66 5 3 5 10 1 17 -10 16 -10 58 -1 63 5 3 5 10 1 17 -10 16 -10 58 -1 63 5 3
5 10 1 17 -10 16 -10 58 -1 63 5 3 5 10 1 17 -10 16 -10 58 -1 63 5 3 5 10 1
17 -10 16 -10 58 -1 63 5 3 5 10 1 17 -10 16 -10 58 -1 63 5 3 5 10 1 17 -8
13 -8 196 0 204 3 3 1 16 -4 30 -6 17 -6 30 1 38 5 6 7 14 4 17 -5 6 -9 134
-4 153 1 6 1 12 0 15 -6 16 -4 70 3 70 5 0 5 5 2 10 -8 13 -10 138 -2 146 3 3
1 17 -4 31 -6 17 -6 30 1 38 5 6 7 14 4 17 -5 6 -9 134 -4 153 1 6 1 12 0 15
-6 16 -4 70 3 70 5 0 5 5 2 10 -8 13 -10 138 -2 146 3 3 1 17 -4 31 -6 17 -6
30 1 38 5 6 7 14 4 17 -7 8 -8 227 -1 234 3 3 1 17 -4 31 -6 17 -6 30 1 38 5
6 7 14 4 17 -5 6 -9 134 -4 153 1 6 1 12 0 15 -6 16 -4 70 3 70 5 0 5 5 2 10
-8 13 -10 138 -2 146 3 3 1 17 -4 31 -6 17 -6 30 1 38 5 6 7 14 4 17 -5 6 -9
134 -4 153 1 6 1 12 0 15 -6 16 -4 70 3 70 5 0 5 5 2 10 -8 13 -10 138 -2 146
3 3 1 18 -4 32 -6 15 -6 29 -1 34 5 5 6 26 2 47 -4 20 -3 46 0 57 4 10 5 23 2
28 -9 15 -9 57 0 62 5 3 5 10 1 17 -10 16 -10 58 -1 63 5 3 5 10 1 17 -10 16
-10 58 -1 63 5 3 5 10 1 17 -10 16 -10 58 -1 63 5 3 5 10 1 17 -10 16 -10 58
-1 63 5 3 5 10 1 17 -10 16 -10 58 -1 63 5 3 5 10 1 17 -10 16 -10 58 -1 63 5
3 5 10 1 17 -8 13 -8 196 0 204 3 3 1 16 -4 30 -6 17 -6 30 1 38 5 6 7 14 4
17 -5 6 -9 134 -4 153 1 6 1 12 0 15 -6 16 -4 70 3 70 5 0 5 5 2 10 -8 13 -10
138 -2 146 3 3 1 17 -4 31 -6 17 -6 30 1 38 5 6 7 14 4 17 -5 6 -9 134 -4 153
1 6 1 15 0 20 -1 6 -3 24 -3 40 l-2 30 -1282 0 c-706 1 -1283 -2 -1284 -5 -1
-3 -2 -63 -4 -135 -1 -71 -3 -133 -4 -136 0 -3 -11 -11 -24 -16 -29 -13 -46
-5 -118 60 -30 26 -59 51 -64 55 -27 21 -143 94 -167 105 -15 6 -28 15 -28 19
0 5 -8 8 -18 8 -10 0 -22 4 -28 9 -11 12 -174 73 -174 65 0 -2 -8 0 -19 5 -10
6 -31 13 -47 16 -16 2 -40 7 -54 11 -14 3 -41 8 -60 11 -44 6 -357 13 -362 7z
m1059 -1797 c39 -20 91 -80 100 -115 8 -30 9 -2155 1 -2187 -10 -40 -22 -61
-54 -92 -77 -74 -204 -73 -276 4 -57 61 -55 5 -54 1183 1 1193 -3 1107 60
1175 47 50 156 66 223 32z"/>
<path d="M8739 9835 c-2 -2 -38 -6 -79 -9 -41 -3 -84 -7 -96 -10 -12 -2 -45
-7 -75 -11 -30 -4 -81 -13 -114 -20 -33 -8 -71 -16 -85 -18 -83 -15 -347 -102
-465 -154 -22 -9 -42 -17 -45 -18 -17 -4 -207 -101 -218 -112 -7 -7 -18 -13
-23 -13 -24 0 -281 -173 -398 -268 -241 -195 -474 -457 -650 -732 -53 -82
-246 -450 -236 -450 2 0 -12 -36 -31 -80 -18 -44 -34 -84 -35 -88 -1 -4 -3
-11 -4 -17 -5 -15 -41 -132 -58 -190 -9 -27 -18 -61 -21 -75 -2 -14 -12 -59
-21 -100 -30 -140 -55 -312 -59 -411 -1 -36 -4 -70 -7 -75 -6 -14 -3 -266 5
-379 10 -140 14 -177 37 -310 16 -95 27 -148 41 -200 5 -22 12 -48 14 -58 4
-22 51 -182 66 -222 30 -84 52 -144 68 -180 10 -22 26 -58 35 -80 22 -51 96
-199 122 -245 60 -104 145 -241 168 -267 6 -6 28 -37 50 -68 22 -31 49 -67 60
-79 11 -12 36 -42 55 -67 52 -66 274 -287 360 -359 41 -34 85 -71 98 -81 12
-11 26 -19 31 -19 5 0 11 -4 13 -8 3 -10 148 -108 248 -169 91 -55 289 -153
390 -192 47 -18 92 -37 101 -41 14 -7 91 -31 109 -34 3 -1 10 -4 15 -7 9 -6
24 -10 85 -24 8 -2 51 -13 95 -24 97 -23 166 -36 315 -56 195 -27 519 -22 745
11 61 9 230 41 230 44 0 1 7 3 15 5 8 1 42 10 75 19 33 10 65 18 70 19 6 2 16
6 23 10 6 5 12 6 12 3 0 -5 147 46 185 64 11 5 44 19 74 30 84 32 360 177 391
205 9 8 20 15 24 15 7 0 156 99 166 110 3 4 23 19 45 36 22 16 45 34 51 39 7
6 31 26 55 45 121 98 315 294 400 405 13 17 30 35 39 42 8 7 12 13 8 13 -4 0
4 12 17 26 26 28 177 253 218 324 79 137 230 468 242 531 2 8 10 32 19 52 8
21 15 40 16 42 0 7 -1 4 26 100 31 114 31 115 38 160 4 20 8 40 10 44 3 3 7
25 10 47 4 22 9 51 11 64 9 48 20 137 31 255 13 135 7 458 -10 590 -2 17 -7
55 -10 85 -7 57 -13 95 -16 95 -1 0 -3 11 -4 25 -2 14 -6 39 -10 55 -3 17 -9
44 -12 60 -3 17 -10 48 -16 70 -7 22 -13 47 -13 55 -1 8 -6 26 -11 40 -4 14
-9 27 -9 30 -20 83 -144 412 -157 418 -5 2 -8 9 -8 15 0 18 -105 220 -151 292
-10 17 -22 37 -26 45 -11 26 -115 175 -124 178 -5 2 -9 8 -9 13 0 9 -73 104
-140 183 -45 53 -144 158 -195 207 -51 49 -67 62 -145 129 -25 21 -56 48 -69
59 -13 12 -27 21 -30 21 -3 0 -18 11 -33 25 -41 38 -273 188 -358 231 -41 21
-76 42 -78 46 -2 5 -10 8 -17 8 -8 0 -45 15 -82 34 -37 18 -79 37 -93 41 -14
4 -29 11 -35 15 -5 4 -68 27 -140 50 -71 23 -137 45 -145 48 -8 3 -22 6 -30 7
-8 1 -33 7 -55 13 -22 7 -76 19 -120 27 -44 8 -91 17 -105 20 -14 3 -48 8 -76
10 -28 3 -62 8 -75 11 -27 7 -494 15 -500 9z m311 -1811 c37 -24 66 -69 76
-117 7 -33 6 -2138 -1 -2167 -3 -14 -7 -30 -8 -35 -2 -6 -13 -26 -26 -44 -62
-87 -219 -94 -289 -13 -55 63 -52 9 -52 1182 0 598 4 1090 8 1094 4 4 7 11 7
15 0 14 50 80 65 86 8 3 31 12 50 20 49 19 122 10 170 -21z"/>
</g>
</svg>
