<svg width="20.000000" height="20.000000" viewBox="0 0 20 20" fill="none" xmlns="http://www.w3.org/2000/svg" xmlns:xlink="http://www.w3.org/1999/xlink">
	<desc>
			Created with Pixso.
	</desc>
	<defs>
		<clipPath id="clip4_132">
			<rect id="delivery-pizza 1" width="20.000000" height="20.000000" fill="white" fill-opacity="0"/>
		</clipPath>
	</defs>
	<rect id="delivery-pizza 1" width="20.000000" height="20.000000" fill="#FFFFFF" fill-opacity="0"/>
	<g clip-path="url(#clip4_132)">
		<path id="Vector" d="M19.99 15.06L19.99 15.67C19.95 16.21 19.61 16.42 19.1 16.42L18.7 16.4C18.7 16 18.52 15.57 18.29 15.24C17.25 13.74 14.89 14.15 14.41 15.95C14.37 16.11 14.36 16.26 14.33 16.41C14.09 16.44 13.83 16.42 13.59 16.42L7.18 16.42C7.15 16.33 7.15 16.21 7.14 16.12C6.6 13.55 3 13.83 2.79 16.42L2.11 16.42C1.97 16.42 1.81 16.44 1.67 16.4C0.98 16.2 0.92 15.7 0.92 15.11L0.92 3.94C0.92 3.63 0.91 3.31 0.93 3C0.96 2.55 1.37 2.13 1.8 2.08C1.93 2.06 2.06 2.07 2.19 2.07L2.84 2.06L13.14 2.06C13.27 2.06 13.4 2.05 13.53 2.07C13.94 2.11 14.37 2.46 14.42 2.89L14.42 2.91C14.45 3.15 14.43 3.39 14.43 3.63L14.43 12.94C14.43 13.27 14.41 13.61 14.43 13.93C14.46 14.29 15 14.23 15.03 13.87C15.06 13.62 15.04 13.35 15.04 13.09L15.04 6.72C15.21 6.72 15.4 6.71 15.57 6.73C16.45 6.84 16.56 7.71 16.75 8.39L17.18 9.95C17.37 10.61 17.35 10.78 17.98 11.1L18.67 11.44C19.49 11.81 20 12.01 20 13.06L19.99 15.06ZM6.48 4.45C6.3 4.47 6.26 4.7 6.2 4.84L4.31 9.91C4.14 10.43 4.63 10.32 4.95 10.32L9.02 10.32L10.79 10.32C11.27 10.32 11.24 10.18 11.23 9.76L11.21 9.41C11.07 7.1 9.27 5.03 7.02 4.52C6.85 4.48 6.66 4.44 6.48 4.45Z" fill="#2C2826" fill-opacity="1.000000" fill-rule="nonzero"/>
		<path id="Vector" d="M8.95 9.72L5.01 9.71L6.74 5.05C8.72 5.55 10.15 6.94 10.57 8.98C10.62 9.23 10.63 9.47 10.66 9.72L8.95 9.72ZM7.05 6.96C6.48 7.12 6.6 7.92 7.23 7.84C7.78 7.67 7.66 6.93 7.05 6.96ZM8.07 8.24C7.51 8.33 7.47 9.1 8.1 9.13C8.66 9.06 8.69 8.26 8.07 8.24Z" fill="#2C2826" fill-opacity="1.000000" fill-rule="nonzero"/>
		<path id="Vector" d="M5.08 18.08C3.64 18.09 2.85 16.54 3.79 15.46C4.09 15.12 4.46 14.97 4.91 14.94C5.73 14.89 6.5 15.51 6.56 16.33C6.63 17.23 5.99 18.01 5.08 18.08Z" fill="#2C2826" fill-opacity="1.000000" fill-rule="nonzero"/>
		<path id="Vector" d="M16.72 18.07C14.57 18.23 14.28 15.22 16.33 14.94C17.75 14.78 18.62 16.36 17.77 17.47C17.5 17.81 17.14 18.01 16.72 18.07Z" fill="#2C2826" fill-opacity="1.000000" fill-rule="nonzero"/>
	</g>
</svg>
