<svg width="75" height="48" viewBox="0 0 75 48" fill="none" xmlns="http://www.w3.org/2000/svg">
<path d="M55.8179 0H55.8807C65.9317 0 74.098 8.46857 74.098 18.8914C74.098 29.2491 65.806 37.7829 55.8179 37.7829C45.767 37.7829 37.6006 29.2491 37.6006 18.8914C37.6006 8.46857 45.767 0 55.8179 0ZM57.0743 25.3406V12.3771C57.0743 11.6606 56.5717 11.1394 55.8807 11.1394C55.1897 11.1394 54.6872 11.6606 54.6872 12.3771V25.3406C54.6872 26.0571 55.1897 26.5783 55.8807 26.5783C56.5717 26.5783 57.0743 26.0571 57.0743 25.3406Z" fill="#FF8A00"/>
<path d="M19.6621 0.521144H35.7436V30.4869C35.7436 43.1246 29.4618 47.424 19.348 47.424H15.3277V38.9554H19.348C19.5365 38.9554 19.6621 38.8903 19.6621 38.6949V34.9817C19.6621 34.7211 19.4109 34.7211 19.348 34.7211C19.2852 34.7211 19.2224 34.7211 19.1596 34.7863C17.2122 36.8057 15.0136 37.7829 12.5009 37.7829C5.27674 37.7829 0 29.64 0 18.8914C0 8.46857 5.96774 0 13.3175 0H13.3803C15.5789 0 17.5263 0.781716 19.1596 2.34514C19.2224 2.41029 19.2852 2.41029 19.348 2.41029C19.4109 2.41029 19.6621 2.34514 19.6621 2.08457V0.521144ZM19.6621 25.3406V12.3771C19.6621 11.6606 19.0968 11.1394 18.4058 11.1394C17.7148 11.1394 17.2122 11.6606 17.2122 12.3771V25.3406C17.2122 26.0571 17.7148 26.5783 18.4058 26.5783C19.0968 26.5783 19.6621 26.0571 19.6621 25.3406Z" fill="#FF8A00"/>
</svg>
