<svg width="164.000000" height="23.000000" viewBox="0 0 164 23" fill="currentColor" xmlns="http://www.w3.org/2000/svg" xmlns:xlink="http://www.w3.org/1999/xlink">
	<path id="Vector 1" d="M13.95 3.27L3.1 3.27C2.16 3.27 1.38 4 1.31 4.93L0.38 16.96C0.25 18.63 2.28 19.56 3.46 18.36L15.24 6.33C16.36 5.19 15.55 3.27 13.95 3.27Z" fill="currentColor" fill-opacity="1.000000" fill-rule="nonzero"/>
	<path id="Vector" d="M156.95 4.04L163.55 4.04L163.55 18.61L156.95 18.61L156.95 17.95C156.95 17.84 156.85 17.84 156.82 17.84C156.8 17.84 156.77 17.84 156.75 17.87C155.95 18.68 155.05 19.08 154.02 19.08C151.05 19.08 148.89 15.79 148.89 11.46C148.89 7.25 151.34 3.83 154.35 3.83L154.38 3.83C155.28 3.83 156.08 4.15 156.75 4.78C156.77 4.81 156.8 4.81 156.82 4.81C156.85 4.81 156.95 4.78 156.95 4.67L156.95 4.04ZM156.95 14.06L156.95 8.83C156.95 8.54 156.72 8.33 156.44 8.33C156.15 8.33 155.95 8.54 155.95 8.83L155.95 14.06C155.95 14.35 156.15 14.56 156.44 14.56C156.72 14.56 156.95 14.35 156.95 14.06Z" fill="currentColor" fill-opacity="1.000000" fill-rule="nonzero"/>
	<path id="Vector" d="M144.32 12.8L140.74 13.3C140.43 13.32 140.33 13.61 140.33 13.8C140.33 13.85 140.35 14.29 140.79 14.29C140.81 14.29 140.84 14.29 140.87 14.29L148.03 13.27L148.03 18.61L138.14 18.61C135.77 18.61 133.86 16.66 133.86 14.24C133.86 12.06 135.46 10.14 137.57 9.85L141.23 9.33C141.56 9.3 141.64 9.04 141.64 8.85C141.64 8.8 141.59 8.33 141.23 8.33C141.17 8.33 141.15 8.35 141.1 8.35L133.86 9.38L133.86 4.04L143.75 4.04C146.12 4.04 148.03 6.01 148.03 8.43C148.03 10.61 146.43 12.45 144.32 12.8Z" fill="currentColor" fill-opacity="1.000000" fill-rule="nonzero"/>
	<path id="Vector" d="M128.85 12.8L125.27 13.3C124.96 13.32 124.86 13.61 124.86 13.8C124.86 13.85 124.88 14.29 125.32 14.29C125.35 14.29 125.37 14.29 125.4 14.29L132.56 13.27L132.56 18.61L122.67 18.61C120.3 18.61 118.39 16.66 118.39 14.24C118.39 12.06 119.99 10.14 122.1 9.85L125.76 9.33C126.09 9.3 126.17 9.04 126.17 8.85C126.17 8.8 126.12 8.33 125.76 8.33C125.71 8.33 125.68 8.35 125.63 8.35L118.39 9.38L118.39 4.04L128.28 4.04C130.65 4.04 132.56 6.01 132.56 8.43C132.56 10.61 130.96 12.45 128.85 12.8Z" fill="currentColor" fill-opacity="1.000000" fill-rule="nonzero"/>
	<path id="Vector" d="M117.04 3.91C116.91 4.83 116.42 5.59 115.72 6.09C115.03 6.59 114.33 6.75 113.79 6.75C113.61 6.75 113.46 6.72 113.28 6.7C112.37 6.51 111.63 6.04 111.14 5.33C110.62 4.62 110.49 3.91 110.49 3.39C110.49 3.2 110.52 3.02 110.55 2.83C110.67 1.91 111.16 1.15 111.86 0.63C112.56 0.13 113.25 0 113.77 0C113.95 0 114.13 0.02 114.33 0.05C115.23 0.18 115.98 0.68 116.47 1.39C116.96 2.1 117.09 2.81 117.09 3.33C117.09 3.52 117.06 3.7 117.04 3.91ZM117.09 18.61L110.49 18.61L110.49 7.75L117.09 7.75L117.09 18.61Z" fill="currentColor" fill-opacity="1.000000" fill-rule="nonzero"/>
	<path id="Vector" d="M104.61 3.83C107.57 3.83 109.73 7.12 109.73 11.46C109.73 15.64 107.28 19.08 104.25 19.08C103.34 19.08 102.57 18.76 101.88 18.11C101.85 18.08 101.82 18.08 101.8 18.08C101.77 18.08 101.67 18.11 101.67 18.21L101.67 22.97L95.08 22.97L95.08 4.04L101.67 4.04L101.67 4.94C101.67 5.04 101.77 5.04 101.8 5.04C101.82 5.04 101.85 5.04 101.88 5.02C102.65 4.23 103.55 3.83 104.61 3.83ZM102.67 14.06L102.67 8.83C102.67 8.54 102.44 8.33 102.16 8.33C101.88 8.33 101.67 8.54 101.67 8.83L101.67 14.06C101.67 14.35 101.88 14.56 102.16 14.56C102.44 14.56 102.67 14.35 102.67 14.06Z" fill="currentColor" fill-opacity="1.000000" fill-rule="nonzero"/>
	<path id="Vector" d="M80.5 3.83L80.53 3.83C84.65 3.83 87.99 7.25 87.99 11.46C87.99 15.64 84.6 19.08 80.5 19.08C76.38 19.08 73.03 15.64 73.03 11.46C73.03 7.25 76.38 3.83 80.5 3.83ZM81.01 14.06L81.01 8.83C81.01 8.54 80.81 8.33 80.53 8.33C80.24 8.33 80.04 8.54 80.04 8.83L80.04 14.06C80.04 14.35 80.24 14.56 80.53 14.56C80.81 14.56 81.01 14.35 81.01 14.06Z" fill="currentColor" fill-opacity="1.000000" fill-rule="nonzero"/>
	<path id="Vector" d="M65.68 4.04L72.27 4.04L72.27 16.13C72.27 21.23 69.69 22.97 65.55 22.97L63.9 22.97L63.9 19.55L65.55 19.55C65.62 19.55 65.68 19.53 65.68 19.45L65.68 17.95C65.68 17.84 65.57 17.84 65.55 17.84C65.52 17.84 65.5 17.84 65.47 17.87C64.67 18.68 63.77 19.08 62.74 19.08C59.78 19.08 57.61 15.79 57.61 11.46C57.61 7.25 60.06 3.83 63.07 3.83L63.1 3.83C64 3.83 64.8 4.15 65.47 4.78C65.5 4.81 65.52 4.81 65.55 4.81C65.57 4.81 65.68 4.78 65.68 4.67L65.68 4.04ZM65.68 14.06L65.68 8.83C65.68 8.54 65.44 8.33 65.16 8.33C64.88 8.33 64.67 8.54 64.67 8.83L64.67 14.06C64.67 14.35 64.88 14.56 65.16 14.56C65.44 14.56 65.68 14.35 65.68 14.06Z" fill="currentColor" fill-opacity="1.000000" fill-rule="nonzero"/>
	<path id="Vector" d="M43.48 3.83L43.5 3.83C47.62 3.83 50.97 7.25 50.97 11.46C50.97 15.64 47.57 19.08 43.48 19.08C39.36 19.08 36.01 15.64 36.01 11.46C36.01 7.25 39.36 3.83 43.48 3.83ZM43.99 14.06L43.99 8.83C43.99 8.54 43.79 8.33 43.5 8.33C43.22 8.33 43.01 8.54 43.01 8.83L43.01 14.06C43.01 14.35 43.22 14.56 43.5 14.56C43.79 14.56 43.99 14.35 43.99 14.06Z" fill="currentColor" fill-opacity="1.000000" fill-rule="nonzero"/>
	<path id="Vector" d="M28.65 4.04L35.25 4.04L35.25 16.13C35.25 21.23 32.67 22.97 28.52 22.97L26.87 22.97L26.87 19.55L28.52 19.55C28.6 19.55 28.65 19.53 28.65 19.45L28.65 17.95C28.65 17.84 28.55 17.84 28.52 17.84C28.5 17.84 28.47 17.84 28.45 17.87C27.65 18.68 26.75 19.08 25.72 19.08C22.75 19.08 20.59 15.79 20.59 11.46C20.59 7.25 23.04 3.83 26.05 3.83L26.08 3.83C26.98 3.83 27.78 4.15 28.45 4.78C28.47 4.81 28.5 4.81 28.52 4.81C28.55 4.81 28.65 4.78 28.65 4.67L28.65 4.04ZM28.65 14.06L28.65 8.83C28.65 8.54 28.42 8.33 28.14 8.33C27.85 8.33 27.65 8.54 27.65 8.83L27.65 14.06C27.65 14.35 27.85 14.56 28.14 14.56C28.42 14.56 28.65 14.35 28.65 14.06Z" fill="currentColor" fill-opacity="1.000000" fill-rule="nonzero"/>
</svg>
